<?xml version="1.0" standalone="no"?>
<!DOCTYPE svg PUBLIC "-//W3C//DTD SVG 20010904//EN"
 "http://www.w3.org/TR/2001/REC-SVG-20010904/DTD/svg10.dtd">
<svg version="1.0" xmlns="http://www.w3.org/2000/svg"
 width="500.000000pt" height="500.000000pt" viewBox="0 0 500.000000 500.000000"
 preserveAspectRatio="xMidYMid meet">

<g transform="translate(0.000000,500.000000) scale(0.100000,-0.100000)"
fill="#000000" stroke="none">
<path d="M2395 4990 c-17 -7 -16 -9 10 -9 17 0 37 4 45 9 12 8 10 10 -10 9
-14 0 -34 -4 -45 -9z"/>
<path d="M846 4969 c-167 -24 -282 -141 -307 -312 -5 -35 -9 -928 -9 -2099 0
-1328 -3 -2039 -10 -2043 -6 -4 -6 -13 -1 -23 5 -9 13 -60 18 -112 7 -71 16
-110 38 -155 16 -33 31 -64 33 -69 3 -5 -1 -5 -8 -1 -9 5 -11 4 -6 -4 4 -6 11
-9 15 -6 5 2 19 -8 32 -23 l24 -27 -25 20 c-25 19 -25 19 -7 0 10 -11 25 -20
35 -20 9 0 16 -5 15 -10 -1 -6 6 -11 15 -12 9 -1 44 -12 77 -25 l60 -23 775
-7 c426 -3 798 -9 825 -12 35 -4 42 -3 25 3 -14 5 -38 10 -55 10 -109 4 -229
93 -282 207 -30 67 -58 275 -34 260 4 -3 10 -48 13 -100 12 -217 124 -333 351
-359 74 -9 322 -11 907 -7 874 5 810 2 934 55 15 7 17 5 11 -6 -5 -8 -5 -11 1
-6 5 5 9 14 9 19 0 6 6 13 14 16 9 3 11 0 6 -8 -5 -9 -4 -11 4 -6 6 4 9 11 6
16 -3 4 2 13 10 20 8 7 15 9 15 4 0 -13 25 15 25 29 1 7 14 38 29 70 16 32 32
88 37 125 12 95 12 4197 -1 4294 -11 91 -27 133 -75 198 -19 26 -32 49 -30 52
3 3 -3 11 -12 19 -16 13 -17 12 -4 -3 19 -25 7 -22 -38 8 -89 58 -73 57 -953
61 -504 3 -841 0 -898 -6 -161 -18 -260 -82 -316 -205 -22 -48 -28 -79 -32
-158 -3 -54 -9 -98 -13 -98 -11 0 -11 55 0 144 20 151 99 250 251 314 31 13
-1404 14 -1494 1z m1419 -20 c-4 -5 -9 -8 -12 -5 -6 5 -133 -117 -127 -123 2
-3 -2 -14 -10 -26 -36 -54 -46 -138 -48 -386 l-2 -244 -6 180 -6 180 -3 -155
c-2 -85 -4 -179 -4 -207 0 -33 -4 -53 -11 -53 -6 0 -4 -5 4 -10 11 -7 12 -10
2 -10 -8 0 -12 -6 -10 -12 3 -7 -3 -19 -11 -28 -9 -8 -12 -12 -7 -7 6 4 13 7
17 7 9 0 6 -56 -4 -66 -11 -11 -9 -44 3 -44 6 0 10 -5 10 -11 0 -5 -3 -8 -7
-6 -5 3 -13 -1 -20 -8 -9 -10 -9 -17 2 -31 18 -24 19 -51 3 -56 -7 -3 -11 -18
-10 -36 2 -28 -1 -32 -23 -32 -18 0 -25 5 -25 20 0 11 -4 20 -10 20 -5 0 -10
18 -10 40 0 22 -4 40 -9 40 -5 0 -12 -18 -16 -40 -4 -22 -11 -40 -15 -40 -5 0
-11 -17 -13 -37 -3 -29 -4 -27 -2 7 4 89 -17 665 -24 672 -4 4 -7 -2 -7 -15
-1 -127 -6 -187 -14 -187 -6 0 -10 31 -10 73 0 100 -17 252 -35 314 -19 65
-67 129 -128 170 -71 48 -140 55 -479 51 -254 -3 -298 -6 -333 -21 -99 -44
-150 -101 -179 -197 -13 -44 -16 -115 -17 -384 -1 -186 -5 -305 -9 -271 -4 33
-8 184 -9 337 -2 275 5 353 34 388 7 8 20 30 29 48 37 72 125 129 208 134 27
2 48 6 48 11 0 4 109 8 243 8 l242 2 -175 11 c-96 7 -195 11 -219 10 -25 -2
-54 3 -70 13 -21 12 -23 12 -8 0 17 -14 15 -15 -22 -13 -23 1 -41 -1 -41 -6 0
-4 -19 -6 -42 -4 -24 2 -53 0 -64 -5 -13 -4 -26 -3 -33 4 -9 9 -14 8 -21 -3
-6 -9 -10 -10 -10 -3 0 14 16 25 44 29 12 2 35 6 51 9 28 4 29 4 5 -5 -22 -9
-21 -9 9 -5 18 3 43 6 55 6 15 1 13 3 -9 9 -16 4 286 8 673 9 502 1 701 -2
697 -10z m-1549 -68 c0 -21 -4 -27 -14 -24 -10 4 -10 8 -2 13 6 4 10 11 9 16
-2 12 0 24 4 24 2 0 3 -13 3 -29z m197 12 c-7 -2 -19 -2 -25 0 -7 3 -2 5 12 5
14 0 19 -2 13 -5z m3297 -21 c58 -23 117 -75 143 -128 30 -58 37 -157 36 -489
-1 -300 -13 -685 -17 -557 -1 28 -6 52 -11 52 -5 0 -12 12 -15 28 -4 15 -21
46 -39 68 -17 23 -39 52 -47 64 -8 12 -21 28 -27 36 -7 7 -13 15 -13 18 0 6
-125 127 -160 154 -14 11 -35 22 -47 26 -13 4 -23 11 -23 16 0 9 -80 50 -98
50 -7 0 -12 5 -12 11 0 5 -5 7 -12 3 -6 -4 -16 -1 -22 7 -6 8 -29 20 -51 27
-22 7 -49 17 -60 22 -72 31 -240 68 -345 76 -35 3 -67 7 -70 9 -9 5 -211 -12
-275 -24 -67 -12 -248 -68 -310 -96 -22 -10 -60 -27 -85 -39 -25 -11 -49 -21
-53 -21 -5 0 -14 -7 -20 -15 -14 -17 -89 -70 -100 -70 -27 0 -205 -215 -235
-282 -6 -16 -16 -28 -22 -28 -5 0 -10 -12 -10 -26 0 -14 -4 -23 -9 -19 -6 3
-12 -12 -14 -32 -2 -21 -4 192 -3 472 l1 510 27 51 c48 92 114 132 238 144 41
4 442 7 890 6 l815 -2 55 -22z m-3534 -19 c-2 -3 -6 -3 -9 -1 -3 2 -15 -6 -28
-17 l-24 -20 18 21 c9 11 24 21 32 21 8 0 13 -2 11 -4z m-36 -49 c0 -8 -19
-13 -24 -6 -3 5 1 9 9 9 8 0 15 -2 15 -3z m937 -58 c23 -20 28 -32 28 -71 0
-39 -5 -51 -28 -71 -52 -45 -131 -27 -157 35 -15 37 1 93 33 116 33 23 91 19
124 -9z m43 -266 c102 -52 159 -173 130 -280 -15 -54 -45 -100 -67 -100 -15 0
-15 2 0 18 44 49 60 151 34 215 -21 49 -67 98 -112 118 -54 25 -140 25 -189 0
-21 -11 -45 -17 -54 -14 -12 3 -13 2 -4 -4 10 -7 8 -13 -7 -27 -13 -12 -21
-14 -26 -6 -3 6 -1 9 6 8 6 -2 14 3 17 11 3 9 0 11 -9 6 -8 -5 -6 1 4 13 57
65 192 85 277 42z m480 -1980 c0 -1308 -3 -1981 -10 -1985 -7 -4 -10 413 -10
1244 0 994 -3 1251 -12 1252 -10 0 -10 2 0 6 9 3 12 44 12 154 0 112 -3 149
-12 150 -10 0 -10 2 0 6 8 3 12 26 12 64 0 40 -4 59 -12 60 -10 0 -10 2 0 6 9
3 12 44 12 154 0 112 -3 149 -12 150 -10 0 -10 2 0 6 9 3 12 46 10 171 -1 140
-3 153 -8 82 l-6 -85 -2 88 c-1 52 2 87 8 87 6 0 10 70 10 191 0 124 3 188 10
184 7 -4 10 -677 10 -1985z m-33 1638 c-3 -8 -6 -5 -6 6 -1 11 2 17 5 13 3 -3
4 -12 1 -19z m-398 -51 c-2 -1 -13 -9 -24 -17 -19 -14 -19 -14 -6 3 7 9 18 17
24 17 6 0 8 -1 6 -3z m368 -129 c-3 -8 -6 -5 -6 6 -1 11 2 17 5 13 3 -3 4 -12
1 -19z m-1037 -18 c0 -5 -2 -10 -4 -10 -3 0 -8 5 -11 10 -3 6 -1 10 4 10 6 0
11 -4 11 -10z m1034 -45 c-4 -8 -8 -15 -10 -15 -2 0 -4 7 -4 15 0 8 4 15 10
15 5 0 7 -7 4 -15z m6 -130 c0 -5 -5 -3 -10 5 -5 8 -10 20 -10 25 0 6 5 3 10
-5 5 -8 10 -19 10 -25z m-20 -31 c0 -8 -5 -12 -10 -9 -6 4 -8 11 -5 16 9 14
15 11 15 -7z m-300 2 c0 -2 -12 -11 -27 -20 l-28 -17 24 20 c23 21 31 25 31
17z m347 -193 c-2 -38 -3 -7 -3 67 0 74 1 105 3 68 2 -38 2 -98 0 -135z m-423
142 c-10 -8 -26 -14 -34 -14 -9 0 -4 6 10 14 33 19 49 19 24 0z m-61 -22 c-7
-2 -19 -2 -25 0 -7 3 -2 5 12 5 14 0 19 -2 13 -5z m-135 -10 c-54 -2 -142 -2
-195 0 -54 1 -10 3 97 3 107 0 151 -2 98 -3z m619 -555 c-1 -40 -3 -10 -3 67
0 77 1 110 3 73 2 -37 2 -100 0 -140z m675 -434 c172 -97 414 -154 597 -140
197 15 387 76 540 173 29 19 55 32 57 30 6 -6 -104 -81 -165 -112 -79 -39
-249 -93 -322 -101 -93 -10 -101 -20 -23 -27 166 -16 394 -109 504 -207 34
-30 33 -29 -24 6 -398 247 -819 253 -1216 18 -92 -54 -106 -50 -24 7 132 91
377 178 502 179 56 1 19 16 -58 24 -79 9 -223 55 -310 99 -81 41 -170 99 -170
110 0 5 12 1 28 -9 15 -10 53 -32 84 -50z m1646 -1994 l-3 -345 -33 -67 c-34
-71 -60 -94 -139 -131 l-48 -22 -835 -3 c-553 -2 -858 1 -903 8 -86 13 -135
38 -181 92 -65 75 -66 85 -66 629 0 268 4 490 9 493 4 3 6 -7 4 -22 -3 -22 -2
-24 5 -7 9 20 9 20 16 -1 4 -12 25 -34 47 -50 22 -15 51 -40 64 -56 13 -15 27
-28 30 -28 4 0 20 -14 37 -31 17 -16 36 -28 44 -25 7 3 18 -1 24 -9 6 -8 24
-17 40 -20 16 -3 34 -12 40 -19 6 -8 43 -24 83 -37 39 -12 81 -28 93 -36 11
-7 34 -14 50 -15 16 -1 40 -8 54 -15 14 -7 35 -13 47 -13 12 0 34 -5 50 -11
36 -14 67 -20 123 -23 25 -2 90 -6 145 -11 182 -13 445 17 600 70 22 7 65 21
96 30 31 9 96 36 145 61 48 24 92 44 97 44 5 0 44 28 86 63 42 34 90 71 106
81 42 27 54 46 56 86 7 123 19 -376 17 -660z"/>
<path d="M1108 4943 c39 -2 105 -2 145 0 39 1 7 3 -73 3 -80 0 -112 -2 -72 -3z"/>
<path d="M1468 4903 c6 -2 18 -2 25 0 6 3 1 5 -13 5 -14 0 -19 -2 -12 -5z"/>
<path d="M1533 4893 c9 -2 25 -2 35 0 9 3 1 5 -18 5 -19 0 -27 -2 -17 -5z"/>
<path d="M1600 4886 c0 -2 9 -6 20 -9 11 -3 20 -1 20 4 0 5 -9 9 -20 9 -11 0
-20 -2 -20 -4z"/>
<path d="M2052 4580 c0 -14 2 -19 5 -12 2 6 2 18 0 25 -3 6 -5 1 -5 -13z"/>
<path d="M1892 3940 c0 -14 2 -19 5 -12 2 6 2 18 0 25 -3 6 -5 1 -5 -13z"/>
<path d="M3014 4830 c-59 -24 -72 -104 -25 -151 l29 -29 257 0 c287 0 305 4
324 63 14 42 3 76 -35 106 -26 20 -36 21 -278 20 -138 0 -261 -4 -272 -9z"/>
<path d="M4380 4866 c0 -2 8 -10 18 -17 15 -13 16 -12 3 4 -13 16 -21 21 -21
13z"/>
<path d="M505 3540 c-3 -5 -1 -10 4 -10 6 0 11 5 11 10 0 6 -2 10 -4 10 -3 0
-8 -4 -11 -10z"/>
<path d="M4480 3540 c0 -5 5 -10 11 -10 5 0 7 5 4 10 -3 6 -8 10 -11 10 -2 0
-4 -4 -4 -10z"/>
<path d="M505 3270 c0 -138 3 -250 8 -250 4 0 7 113 7 250 0 138 -3 250 -7
250 -5 0 -8 -113 -8 -250z"/>
<path d="M4480 3270 c0 -137 3 -250 8 -250 4 0 7 112 7 250 0 137 -3 250 -7
250 -5 0 -8 -112 -8 -250z"/>
<path d="M505 3000 c3 -5 8 -10 11 -10 2 0 4 5 4 10 0 6 -5 10 -11 10 -5 0 -7
-4 -4 -10z"/>
</g>
</svg>
